<?xml version="1.0" encoding="utf-8"?>
<!-- Generator: Adobe Illustrator 23.1.1, SVG Export Plug-In . SVG Version: 6.00 Build 0)  -->
<svg version="1.1" id="Layer_1" xmlns="http://www.w3.org/2000/svg" xmlns:xlink="http://www.w3.org/1999/xlink" x="0px" y="0px"
	 viewBox="0 0 170.1 28.3" style="enable-background:new 0 0 170.1 28.3;" xml:space="preserve">
<path d="M129,18.3c0-0.1,0-0.1,0-0.2v-7.7c0-0.1,0-0.1,0-0.2c0-0.3-0.1-0.5-0.3-0.7c0,0,0,0-0.1-0.1c0,0,0,0-0.1-0.1l-11.9-8.2
	c-0.2-0.1-0.4-0.2-0.6-0.2c0,0,0,0-0.1,0c-0.3,0-0.6,0.2-0.8,0.4l-11.6,7.9c-0.3,0.2-0.4,0.5-0.4,0.8c0,0,0,0,0,0c0,0,0,0,0,0v7.9
	c0,0,0,0,0,0c0,0,0,0,0,0c0,0.3,0.2,0.6,0.4,0.8l11.9,8c0.2,0.1,0.4,0.2,0.6,0.2s0.4-0.1,0.6-0.2l11.7-7.8c0.2-0.1,0.3-0.2,0.4-0.3
	c0.1-0.1,0.1-0.1,0.2-0.2c0,0,0,0,0,0C128.9,18.6,129,18.4,129,18.3z M127,16.4l-3.1-2.1l3.1-2.1V16.4z M122.1,13l-5.2-3.5V3.9
	l9.3,6.4L122.1,13z M116,17l-4.2-2.8l4.2-2.9l4.2,2.9L116,17z M114.9,4.1v5.6L110,13l-4.1-2.8L114.9,4.1z M105.1,12.1l3.1,2.1
	l-3.1,2.1V12.1z M110,15.4l5,3.3v5.6l-9.1-6.1L110,15.4z M117,24.4v-5.6l5.1-3.4l4.1,2.8L117,24.4z"/>
<path d="M13.3,21.6L10,16.2c0.1,0,0.2-0.1,0.2-0.1c0.9-0.4,1.5-1,2-1.8c0.5-0.8,0.7-1.7,0.7-2.7c0-1.1-0.2-2-0.7-2.8
	c-0.5-0.8-1.1-1.4-2-1.9S8.4,6.2,7.3,6.2h-4C3,6.2,2.7,6.3,2.5,6.5C2.3,6.8,2.2,7,2.2,7.4v14.9c0,0.3,0.1,0.6,0.3,0.8
	c0.2,0.2,0.5,0.3,0.8,0.3c0.3,0,0.6-0.1,0.8-0.3c0.2-0.2,0.3-0.5,0.3-0.8v-5.5h2.8c0.1,0,0.3,0,0.4,0l3.8,6.1
	c0.1,0.2,0.3,0.3,0.4,0.4c0.2,0.1,0.4,0.1,0.6,0.1c0.5,0,0.8-0.2,1-0.6S13.6,22.1,13.3,21.6z M4.5,14.7V8.3h2.8
	c0.7,0,1.3,0.1,1.8,0.4C9.6,9,10,9.4,10.3,9.9c0.3,0.5,0.4,1.1,0.4,1.7c0,0.6-0.1,1.1-0.4,1.6S9.6,14,9.1,14.3
	c-0.5,0.3-1.1,0.4-1.8,0.4H4.5z"/>
<path d="M26.1,23.4c-0.3,0-0.6-0.1-0.8-0.3c-0.2-0.2-0.3-0.5-0.3-0.8v-5.1L19.1,8c-0.2-0.3-0.3-0.6-0.2-0.9s0.2-0.5,0.4-0.7
	c0.2-0.2,0.5-0.3,0.7-0.3c0.2,0,0.4,0.1,0.6,0.2c0.1,0.1,0.3,0.3,0.4,0.5l5.6,8.9h-0.9l5.7-9c0.1-0.2,0.3-0.3,0.4-0.4
	c0.2-0.1,0.4-0.1,0.6-0.1c0.3,0,0.5,0.1,0.7,0.3c0.2,0.2,0.3,0.4,0.3,0.7s0,0.5-0.2,0.8l-5.9,9.1v5.1c0,0.3-0.1,0.6-0.3,0.8
	C26.7,23.3,26.4,23.4,26.1,23.4z"/>
<path d="M51.1,21.8L44.9,7c-0.2-0.5-0.6-0.8-1.1-0.8c-0.5,0-0.9,0.3-1.1,0.8l-6.2,14.8c-0.2,0.4-0.2,0.8,0.1,1.1
	c0.2,0.4,0.5,0.5,0.9,0.5c0.2,0,0.4-0.1,0.6-0.2c0.2-0.1,0.3-0.3,0.5-0.5l1.3-3.1h7.9l1.2,3.1c0.1,0.2,0.2,0.4,0.4,0.5
	c0.2,0.1,0.4,0.2,0.6,0.2c0.4,0,0.7-0.2,1-0.5C51.3,22.6,51.3,22.2,51.1,21.8z M40.7,17.7l3.2-7.8l3.1,7.8H40.7z"/>
<path d="M59.7,23.4c-0.3,0-0.6-0.1-0.8-0.3c-0.2-0.2-0.3-0.5-0.3-0.8V7.4c0-0.3,0.1-0.6,0.3-0.8c0.2-0.2,0.5-0.3,0.8-0.3
	c0.4,0,0.6,0.1,0.9,0.4l9.6,12.8v-12c0-0.3,0.1-0.6,0.3-0.8c0.2-0.2,0.5-0.3,0.8-0.3c0.3,0,0.6,0.1,0.8,0.3c0.2,0.2,0.3,0.5,0.3,0.8
	v14.9c0,0.3-0.1,0.6-0.3,0.8s-0.5,0.3-0.8,0.3c-0.1,0-0.3,0-0.5-0.1c-0.2-0.1-0.3-0.2-0.4-0.3l-9.6-12.8v12c0,0.3-0.1,0.6-0.3,0.8
	C60.3,23.3,60,23.4,59.7,23.4z"/>
<path d="M83.9,23.4c-0.3,0-0.6-0.1-0.8-0.3c-0.2-0.2-0.3-0.5-0.3-0.8c0-0.3,0.1-0.5,0.2-0.8L93.8,8.2h-9.6c-0.4,0-0.6-0.1-0.8-0.3
	s-0.3-0.4-0.3-0.7c0-0.3,0.1-0.6,0.3-0.8c0.2-0.2,0.5-0.3,0.8-0.3h11.4c0.3,0,0.6,0.1,0.8,0.3c0.2,0.2,0.3,0.5,0.4,0.7
	c0,0.3-0.1,0.5-0.2,0.8L85.7,21.4h9.9c0.3,0,0.6,0.1,0.8,0.3c0.2,0.2,0.3,0.4,0.3,0.7c0,0.3-0.1,0.6-0.3,0.8
	c-0.2,0.2-0.5,0.3-0.8,0.3H83.9z"/>
<path d="M136.5,23.4c-0.3,0-0.6-0.1-0.8-0.3c-0.2-0.2-0.3-0.5-0.3-0.8V7.4c0-0.3,0.1-0.6,0.3-0.8c0.2-0.2,0.5-0.3,0.8-0.3
	c0.3,0,0.6,0.1,0.8,0.3c0.2,0.2,0.3,0.5,0.3,0.8v13.8h8c0.3,0,0.6,0.1,0.8,0.3s0.3,0.5,0.3,0.8c0,0.3-0.1,0.6-0.3,0.8
	s-0.5,0.3-0.8,0.3H136.5z"/>
<path d="M167.8,21.8L161.6,7c-0.2-0.5-0.5-0.8-1.1-0.8c-0.5,0-0.9,0.3-1.1,0.8l-6.2,14.8c-0.2,0.4-0.2,0.8,0.1,1.1
	c0.2,0.4,0.5,0.5,0.9,0.5c0.2,0,0.4-0.1,0.6-0.2s0.3-0.3,0.5-0.5l1.3-3.1h7.9l1.2,3.1c0.1,0.2,0.2,0.4,0.4,0.5
	c0.2,0.1,0.4,0.2,0.6,0.2c0.4,0,0.7-0.2,1-0.5S168,22.2,167.8,21.8z M157.4,17.7l3.2-7.8l3.1,7.8H157.4z"/>
</svg>
